<svg width="83" height="129" viewBox="0 0 83 129" fill="none" xmlns="http://www.w3.org/2000/svg">
<path d="M38.9448 34.4223L38.7675 34.221L37.8048 35.0663L37.9808 35.269L38.9448 34.4223Z" fill="white"/>
<path d="M43.7717 35.8689L43.8664 35.7863L43.973 35.6916L43.577 35.2409L43.1277 34.7276L42.925 34.9049L43.017 35.0089L43.7717 35.8689Z" fill="white"/>
<path d="M43.7691 30.8545L44.7331 30.0079L44.5758 29.8305L44.5558 29.8052L43.5918 30.6519L43.7691 30.8545Z" fill="white"/>
<path d="M44.1177 32.8579H45.4004V32.5886H44.1177V32.8579Z" fill="white"/>
<path d="M50.1741 59.5571C50.1754 63.1718 50.1781 67.5064 50.1794 71.1211V78.9544C52.6021 77.7624 55.4087 76.7078 58.5901 75.7944L57.8754 61.1984L50.1741 59.5571Z" fill="white"/>
<path d="M27.6325 63.0733L29.3592 62.6973L29.3539 67.64L27.6325 67.684V63.0733ZM24.0405 74.1187C26.4232 74.484 29.1699 75.0507 32.0245 75.928V73.9267C32.0312 69.3987 32.0379 64.148 32.0445 59.62L24.9179 61.2213C24.9179 61.4307 24.2392 70.9787 24.0405 74.1187Z" fill="white"/>
<path d="M33.7679 59.3312C33.7679 64.6766 33.7639 72.3539 33.7532 76.2232C33.7519 76.3206 33.7559 76.4112 33.7625 76.4966C37.5225 77.8046 41.3772 79.6726 44.7625 82.3419C45.8225 81.4846 47.0239 80.6752 48.3612 79.9152C48.3519 74.9566 48.3492 65.9232 48.3479 59.3312H33.7679Z" fill="white"/>
<path d="M52.0815 32.6314C52.0815 32.5394 52.1015 32.4514 52.1322 32.374C52.2495 31.6954 52.5642 31.21 52.9362 31.21C53.4069 31.21 53.7882 31.9927 53.7882 32.958V38.646L52.0815 38.0007V32.6314ZM49.2735 36.1794V39.1074C49.2829 39.114 49.2935 39.1207 49.3042 39.126L55.5282 41.6127C55.9215 41.7914 56.3495 41.462 56.3495 40.9794V30.2647C56.3495 29.986 56.2002 29.7354 55.9722 29.6314L49.7482 26.8087C49.3549 26.6314 48.9269 26.9607 48.9269 27.442V35.902H48.9962C49.1495 35.902 49.2735 36.026 49.2735 36.1794Z" fill="white"/>
<path d="M33.7143 56.6046L32.805 56.6126L31.9943 56.9192C31.9997 53.7232 32.0037 50.7499 32.0077 47.6846C32.0103 46.3992 32.0117 45.0979 32.0143 43.7352C32.0143 43.5606 32.0183 43.4046 32.025 43.2646C32.041 42.9859 32.0757 42.7752 32.149 42.6139C32.2077 42.4859 32.2997 42.3939 32.4157 42.3179C32.5197 42.2499 32.6383 42.1939 32.7997 42.1539C33.029 42.0979 33.325 42.0619 33.705 42.0286C33.705 42.3219 33.713 48.6032 33.7143 56.6046ZM48.2943 55.1446C48.2943 48.2686 48.2983 43.2246 48.2983 42.3632V42.2432C48.7477 42.2952 49.0863 42.3339 49.3423 42.3912C49.5957 42.4499 49.7663 42.5272 49.881 42.6552C50.1103 42.9126 50.1143 43.3739 50.1143 44.2939C50.1157 46.5112 50.117 48.5486 50.1183 50.5859C50.1183 52.6232 50.1197 54.6606 50.1197 56.8792L49.465 56.5912L48.2943 56.6086V55.1446ZM29.1637 53.9846L27.6863 54.4099V49.7646L29.1717 49.1246L29.1637 53.9846ZM24.8423 59.2486L23.2117 60.3192L24.8263 61.1806L24.8623 60.3726L32.9357 58.3032L49.5717 58.1832L57.8863 60.4312L57.921 61.2392L59.537 60.3766L57.8223 59.2766C57.8223 59.2766 57.737 55.3112 57.6957 51.8619C57.6863 50.9206 57.6783 50.0192 57.6783 49.2459C57.677 48.9886 57.6783 48.7446 57.6783 48.5206C57.6797 48.2939 57.6823 48.0859 57.685 47.9006C57.685 47.8459 57.689 47.7672 57.6983 47.6699C57.7263 47.3792 57.7877 46.9286 57.877 46.5419L59.0303 45.4046L57.557 43.6832L49.273 40.0912L33.2183 40.1152L25.225 43.6366L24.409 44.4726L23.5943 45.3086L24.725 46.3006C24.7983 46.5486 24.8557 46.8806 24.897 47.1806C24.917 47.3299 24.9343 47.4726 24.945 47.5939C24.957 47.7139 24.9637 47.8112 24.965 47.8739C24.977 48.8219 24.9757 49.7699 24.965 50.7166C24.9437 52.6126 24.8877 54.5086 24.8583 56.4059C24.8437 57.3539 24.8357 58.3006 24.8423 59.2486Z" fill="white"/>
<path d="M28.5191 32.6314C28.5191 32.5394 28.5377 32.4514 28.5684 32.3741C28.6871 31.6954 29.0004 31.2101 29.3737 31.2101C29.8444 31.2101 30.2257 31.9927 30.2257 32.9581V37.6847L28.5191 38.4821V32.6314ZM26.3791 41.9927C26.4737 42.0047 26.5751 41.9927 26.6724 41.9474C26.6724 41.9474 28.6524 41.0541 30.3884 40.2661C30.9684 40.0034 31.5217 39.7527 31.9644 39.5501C32.2617 39.4154 32.5084 39.3021 32.6831 39.2221C32.8577 39.1421 32.9591 39.0941 32.9644 39.0901V36.2234C32.9644 36.1527 33.0057 36.0754 33.0657 36.0167C33.1257 35.9567 33.2044 35.9141 33.2737 35.9074V27.4421C33.2737 27.3221 33.2471 27.2114 33.2017 27.1154C33.1551 27.0194 33.0897 26.9381 33.0111 26.8781C32.8551 26.7581 32.6497 26.7194 32.4524 26.8087L26.2284 29.6314C26.0004 29.7354 25.8511 29.9861 25.8511 30.2647V41.3154C25.8511 41.5554 25.9577 41.7594 26.1137 41.8794C26.1924 41.9394 26.2831 41.9794 26.3791 41.9927Z" fill="white"/>
<path d="M38.0009 32.7635L38.1929 32.9168L41.1342 33.0435C41.3929 33.0555 41.6182 32.9088 41.7075 32.6995C41.7382 32.6301 41.7515 32.5528 41.7489 32.4728L41.6075 29.7368H41.6195L41.6289 28.4541L41.3609 28.4528L41.3542 29.1968L41.2022 29.3261L41.0102 32.4488L38.1929 32.6048L38.0009 32.7635Z" fill="white"/>
<path d="M41.1922 27.8884C43.7602 27.8884 45.8402 29.9697 45.8402 32.5377C45.8402 35.1044 43.7602 37.1857 41.1922 37.1857C38.6255 37.1857 36.5442 35.1044 36.5442 32.5377C36.5442 29.9697 38.6255 27.8884 41.1922 27.8884ZM34.9535 36.179V38.6497V38.7604H35.2749C35.2775 38.7604 35.2789 38.763 35.2829 38.763H47.0962C47.1055 38.763 47.1122 38.7564 47.1215 38.7564H47.3415V38.7017V36.179C47.3415 36.0257 47.4655 35.9017 47.6189 35.9017H47.6962V27.0964C47.6962 26.7204 47.4282 26.415 47.0962 26.415H35.2829C34.9522 26.415 34.6829 26.7204 34.6829 27.0964V35.903C34.8322 35.907 34.9535 36.0284 34.9535 36.179Z" fill="white"/>
<path d="M40.8591 36.8112H41.1284V35.5299H40.8591V36.8112Z" fill="white"/>
<path d="M39.2496 30.4249L38.2923 29.5716L38.1136 29.7716L39.0696 30.6262L39.2496 30.4249Z" fill="white"/>
<path d="M38.4191 32.2165H37.1365V32.4859H38.4191V32.2165Z" fill="white"/>
<path d="M2.32238 52.2387C4.13038 51.6933 22.9237 45.8813 22.9237 45.8813L22.9104 45.872L22.3611 45.4333L24.6397 42.9267L25.1237 42.588C25.1264 42.516 25.1877 29.1987 25.1877 29.1987L33.2504 25.3733L49.0917 25.3853C49.0917 25.3853 54.4637 28.096 57.2384 29.3987C57.2397 33.8093 57.2491 42.212 57.2584 42.5267L57.741 42.8653L60.029 45.4053L59.4704 45.8093L59.4584 45.82C59.4584 45.82 78.4264 51.6693 80.3144 52.2387C80.7077 52.3573 80.8091 52.4107 80.7944 52.9733C80.7944 52.9733 80.7051 71.1827 80.6837 73.8867L78.817 73.9653C76.2824 74.1213 73.8024 74.2227 71.3491 74.3773C68.9131 74.708 66.1037 75.1747 63.1944 75.8307C55.5091 77.564 45.5397 81.004 41.685 87.5507L41.6411 87.616C41.2384 88.128 40.8597 88.6867 40.5784 89.168C50.3184 84.5253 60.1571 83.9053 66.7104 84.208C73.8544 84.5373 78.6171 85.9613 78.8157 86.0227L80.7504 86.604C80.7251 87.004 80.6904 87.4013 80.6504 87.7987L78.4757 87.1453C78.4277 87.1293 73.6277 85.6973 66.621 85.3773C60.173 85.084 50.4824 85.6987 40.921 90.3027L40.6504 90.4467C40.6904 90.4613 40.7317 90.4773 40.7717 90.492C43.4704 91.52 50.6411 94.2493 53.6104 100.72L53.705 100.912C59.4704 100.167 65.9691 99.82 73.0704 100.215C73.3611 100.232 75.3517 100.356 76.6611 100.481C76.4597 100.856 76.2491 101.231 76.0331 101.603C74.9757 101.513 73.6437 101.425 73.001 101.385C56.5037 100.469 43.2811 103.595 35.0944 106.379C26.2211 109.397 21.1837 112.675 21.1344 112.708L21.1104 112.724C21.089 112.736 19.453 113.699 18.1904 114.511C17.861 114.257 17.537 114.003 17.217 113.744C18.4824 112.911 20.313 111.831 20.5037 111.72C20.8504 111.492 25.8077 108.303 34.6731 105.284C39.1664 103.753 45.1584 102.121 52.3624 101.095L51.5744 100.704C40.1344 95.5653 28.6957 94.4 21.1131 94.3267C12.8784 94.2467 7.28772 95.4053 7.23305 95.416C7.20505 95.4227 5.29572 95.816 4.04372 96.092C3.90372 95.7213 3.77038 95.3507 3.64372 94.9787C4.88638 94.7027 6.88905 94.2907 6.99305 94.268C7.04638 94.2573 12.7371 93.0773 21.0904 93.1547C28.6784 93.224 40.0704 94.3747 51.5317 99.4053C48.3691 94.6427 42.6584 92.4653 40.3531 91.588C39.7851 91.372 39.5251 91.2707 39.3637 91.1707C39.1357 91.0293 38.9851 90.7987 38.9371 90.5227C38.7611 89.524 40.0877 87.6947 40.6957 86.9213C41.4971 85.568 42.5531 84.3 43.8544 83.1187C41.0491 80.9427 37.9131 79.3227 34.7891 78.1187C24.6184 74.268 13.877 74.364 3.57038 75.116L1.96638 75.2493C1.93438 72.0867 1.84372 52.9733 1.84372 52.9733C1.82772 52.4107 1.93038 52.3573 2.32238 52.2387ZM6.58772 104.751C10.7717 111.113 16.5597 116.333 24.2837 120.711C28.8251 123.285 33.9824 125.588 40.5131 127.959C40.5411 127.969 40.5717 127.977 40.601 127.987C40.601 127.987 41.0437 128.105 41.2864 128.105C41.2957 128.105 41.3077 128.107 41.3184 128.107C41.3291 128.107 41.3411 128.105 41.3504 128.105C41.5931 128.105 42.0357 127.987 42.0357 127.987C42.0664 127.977 42.0957 127.969 42.125 127.959C48.6544 125.588 53.8117 123.285 58.353 120.711C66.077 116.333 71.865 111.113 76.049 104.751C79.929 98.848 82.0211 92.5893 82.2677 86.1467C82.5264 79.38 82.6371 53.0533 82.6357 52.9987C82.6651 51.672 82.0797 50.8467 80.8477 50.4747C78.6704 49.8173 60.4504 44.188 60.4504 44.188L58.5357 42.1587L58.5091 30.148L60.0757 28.8733C60.0757 28.8733 55.4264 26.4093 54.0944 25.6987C54.105 24.1413 54.1251 22.468 54.0731 21.072C54.0211 19.664 53.5571 18.3893 52.5144 17.548C49.7397 15.3133 46.7837 13.504 43.417 12.68C43.1824 12.6213 42.9797 12.572 42.8077 12.5213C42.5557 12.4507 42.3744 12.2027 42.3557 11.908L42.2771 11.2507L42.0451 9.34533C42.0637 9.332 42.0811 9.31867 42.0984 9.30534C42.4517 9.04534 42.6811 8.62933 42.6811 8.15733C42.6811 7.59333 42.3517 7.10667 41.8757 6.87467L41.6931 4.87467C41.8997 4.73067 42.0331 4.49333 42.0331 4.224C42.0331 3.90266 41.8424 3.628 41.5677 3.50266L41.2477 0.00400544L41.2464 0.0199966V-2.53677e-06L40.9264 3.49866C40.653 3.624 40.4611 3.89867 40.4611 4.22C40.4611 4.48933 40.5957 4.72666 40.801 4.87066L40.6184 6.872C40.1424 7.10266 39.8144 7.58933 39.8144 8.15466C39.8144 8.62533 40.0437 9.04266 40.3971 9.30133C40.4131 9.31466 40.4304 9.32799 40.449 9.34133L40.2184 11.2467L40.1384 11.9053C40.121 12.1987 39.9397 12.4467 39.6864 12.5173C39.5157 12.568 39.3131 12.6173 39.0771 12.676C35.7117 13.5 32.7544 15.3093 29.981 17.544C28.937 18.3853 28.4717 19.66 28.421 21.0693C28.373 22.3947 28.3877 23.972 28.3997 25.4613C27.2117 26.096 22.3224 28.6867 22.3224 28.6867L23.8904 29.9627L23.8464 42.22L21.9317 44.2493C21.3077 44.4427 3.96638 49.8173 1.79038 50.4747C0.55705 50.8467 -0.0282839 51.672 0.00104944 52.9987C-0.000283894 53.0533 0.110383 79.38 0.369049 86.1467C0.615716 92.5893 2.70772 98.848 6.58772 104.751Z" fill="white"/>
</svg>
